<?xml version="1.0" encoding="UTF-8"?> <svg xmlns="http://www.w3.org/2000/svg" xmlns:xlink="http://www.w3.org/1999/xlink" version="1.1" id="Laag_1" x="0px" y="0px" width="556.772px" height="119.711px" viewBox="0 0 556.772 119.711" xml:space="preserve"> <g> <path fill="#EF3E33" d="M8.655,0.024c4.774,0,8.647,3.872,8.647,8.653v96.625c0,4.771-3.874,8.634-8.647,8.634 c-4.781,0-8.655-3.862-8.655-8.634V8.677C0,3.896,3.874,0.024,8.655,0.024"></path> <path fill="#EF3E33" d="M110.146,0.144L110.146,0.144c4.77,0,8.65,3.872,8.65,8.649v96.626c0,4.771-3.881,8.644-8.65,8.644 c-4.784,0-8.644-3.872-8.644-8.644V8.793C101.503,4.016,105.363,0.144,110.146,0.144"></path> <path fill="#EF3E33" d="M34.181,0.133c4.774,0,8.655,3.872,8.655,8.654v45.669c0,4.773-3.881,8.647-8.655,8.647 c-4.777,0-8.644-3.875-8.644-8.647V8.788C25.537,4.005,29.404,0.133,34.181,0.133"></path> <path fill="#EF3E33" d="M84.732,0c4.775,0,8.641,3.874,8.641,8.651v45.666c0,4.784-3.865,8.657-8.641,8.657 c-4.773,0-8.655-3.874-8.655-8.657V8.651C76.077,3.874,79.959,0,84.732,0"></path> <path fill="#EF3E33" d="M59.498,0L59.498,0c4.779,0,8.644,3.874,8.644,8.651v96.628c0,4.771-3.865,8.644-8.644,8.644 c-4.769,0-8.643-3.872-8.643-8.644V8.651C50.855,3.874,54.729,0,59.498,0"></path> </g> <polygon fill="#7C7C81" points="140.608,2.268 168.021,2.223 184.674,59.199 202.478,2.176 229.138,2.143 229.243,80.484 212.562,80.506 212.463,13.32 191.218,80.535 177.332,80.563 156.337,13.399 156.425,80.59 140.705,80.612 "></polygon> <path fill="#7C7C81" d="M269.259,24.407c19.838-0.029,28.42,13.399,28.429,28.683c0.026,15.391-8.837,29.266-28.675,29.301 c-15.6,0.017-27.964-9.617-27.99-28.793C241.008,40.376,247.711,24.435,269.259,24.407 M269.542,71.222 c7.055-0.013,11.807-4.241,11.793-18.764c-0.017-7.263-1.433-17.333-12.059-17.325c-11.695,0.019-11.792,13.562-11.792,18.552 C257.514,65.932,261.646,71.231,269.542,71.222"></path> <path fill="#7C7C81" d="M309.115,2.248l16.039-0.024l0.039,30.021c5.397-7.164,12.672-7.386,15.469-7.394 c13.345-0.014,23.872,10.48,23.898,28.904c0.026,20.483-11.879,27.646-22.832,27.661c-2.818,0-11.484-0.202-16.488-8.753 c-0.093,1.733-0.205,4.335-0.512,7.695l-15.516,0.018L309.115,2.248z M336.351,35.586c-11.809,0.015-11.784,13.458-11.784,16.921 c0.017,12.459,5.342,18.416,12.601,18.405c11.05-0.015,11.028-13.775,11.028-16.593C348.182,49.979,347.954,35.566,336.351,35.586"></path> <path fill="#7C7C81" d="M408.815,80.239c-0.558-3.363-0.566-5.843-0.566-7.472c-6.062,8.775-13.306,8.791-16.335,8.791 c-7.924,0.02-11.501-2.248-13.675-4.315c-3.244-3.244-4.771-7.676-4.771-12.013c0-4.338,1.483-12.352,11.562-17.026 c6.722-3.048,16.362-3.064,21.673-3.076c-0.004-3.567-0.126-5.303-0.768-7.251c-1.419-4.013-5.646-4.548-7.16-4.544 c-2.273,0-4.652,0.984-6.054,3.044c-1.202,1.839-1.202,3.583-1.202,4.88l-15.716,0.015c0.118-2.918,0.426-8.776,6.162-12.904 c4.987-3.579,11.38-4.456,16.577-4.468c4.553-0.002,14.083,0.743,19.521,7.023c3.68,4.438,3.807,10.936,3.807,13.432l0.132,21.996 c0.018,4.665,0.343,9.329,1.32,13.868L408.815,80.239z M389.064,63.362c0.01,3.687,2.503,7.798,7.818,7.793 c2.92,0,5.299-1.418,6.814-3.147c2.821-3.478,3.032-7.701,3.016-13.557C396.418,53.605,389.057,56.861,389.064,63.362"></path> <path fill="#7C7C81" d="M465.099,44.837c-0.207-1.951-0.869-10.077-7.037-10.069c-7.59,0.013-8.451,11.503-8.434,17.462 c0,3.027,0.33,12.778,4.03,16.784c1.515,1.622,3.139,1.839,4.333,1.835c1.738-0.004,6.712-0.753,7.361-10.52l15.809-0.012 c-0.206,4.213-0.733,10.838-7.024,16.146c-3.889,3.369-8.762,5.114-15.588,5.119c-7.257,0.008-13.666-1.603-18.648-7.235 c-4.776-5.522-6.949-12.772-6.963-21.557c-0.021-24.921,18.28-28.419,25.532-28.426c10.193-0.021,22.223,5.601,22.358,20.453 L465.099,44.837z"></path> <path fill="#7C7C81" d="M519.31,44.764c-0.236-1.953-0.896-10.077-7.08-10.073c-7.582,0.009-8.43,11.504-8.42,17.461 c0,3.035,0.342,12.783,4.029,16.788c1.532,1.63,3.14,1.839,4.337,1.839c1.735-0.006,6.722-0.768,7.362-10.517l15.817-0.022 c-0.207,4.216-0.742,10.837-7.028,16.154c-3.877,3.37-8.771,5.105-15.589,5.105c-7.265,0.018-13.658-1.603-18.648-7.221 c-4.78-5.527-6.963-12.786-6.971-21.557c-0.027-24.928,18.266-28.413,25.531-28.434c10.193-0.007,22.222,5.607,22.362,20.454 L519.31,44.764z"></path> <text transform="matrix(1 0 0 1 138.4634 114.0635)" fill="#7C7C81" font-family="'Optima-Regular'" font-size="21.0725" letter-spacing="7">AEROSOL TECHNOLOGIES </text> </svg> 